<svg xmlns="http://www.w3.org/2000/svg" xmlns:xlink="http://www.w3.org/1999/xlink" viewBox="0,0,256,256" width="64px" height="64px" fill-rule="nonzero"><g fill="none" fill-rule="nonzero" stroke="none" stroke-width="none" stroke-linecap="none" stroke-linejoin="none" stroke-miterlimit="10" stroke-dasharray="" stroke-dashoffset="0" font-family="none" font-weight="none" font-size="none" text-anchor="none" style="mix-blend-mode: normal"><g transform="scale(4,4)"><path d="M46.41,50.119l9.572,2.815c1.197,0.352 2.309,-0.76 1.957,-1.957l-2.815,-9.572z" fill="#56e3ff" stroke="none" stroke-width="1" stroke-linecap="butt" stroke-linejoin="miter"></path><ellipse cx="32" cy="61" rx="19" ry="3" fill="#000000" stroke="none" stroke-width="1" stroke-linecap="butt" stroke-linejoin="miter" opacity="0.3"></ellipse><ellipse cx="26.5" cy="25.04" rx="20.5" ry="18.04" fill="#98c900" stroke="none" stroke-width="1" stroke-linecap="butt" stroke-linejoin="miter"></ellipse><path d="M26.5,7c-11.322,0 -20.5,8.077 -20.5,18.04c0,1.708 0.288,3.354 0.792,4.92c2.382,-0.382 4.208,-2.43 4.208,-4.92c0,-7.19 6.953,-13.04 15.5,-13.04c2.573,0 4.667,-1.951 4.945,-4.45c-1.587,-0.346 -3.237,-0.55 -4.945,-0.55z" fill="#ffffff" stroke="none" stroke-width="1" stroke-linecap="butt" stroke-linejoin="miter" opacity="0.3"></path><path d="M20,40.769l-10.732,3.157c-1.342,0.395 -2.588,-0.852 -2.194,-2.194l3.157,-10.732z" fill="#98c900" stroke="none" stroke-width="1" stroke-linecap="butt" stroke-linejoin="miter"></path><ellipse cx="40" cy="36" rx="18" ry="16" fill="#56e3ff" stroke="none" stroke-width="1" stroke-linecap="butt" stroke-linejoin="miter"></ellipse><circle cx="19.5" cy="18.5" r="2.5" fill="#548500" stroke="none" stroke-width="1" stroke-linecap="butt" stroke-linejoin="miter"></circle><circle cx="33.5" cy="18.5" r="2.5" fill="#548500" stroke="none" stroke-width="1" stroke-linecap="butt" stroke-linejoin="miter"></circle><circle cx="32.5" cy="32.5" r="2.5" fill="#008aa9" stroke="none" stroke-width="1" stroke-linecap="butt" stroke-linejoin="miter"></circle><circle cx="46.5" cy="32.5" r="2.5" fill="#008aa9" stroke="none" stroke-width="1" stroke-linecap="butt" stroke-linejoin="miter"></circle><path d="M12.891,16.335c1.709,-1.95 3.977,-3.522 6.598,-4.54" fill="none" stroke="#ffffff" stroke-width="3" stroke-linecap="round" stroke-linejoin="round"></path><path d="M57.938,50.977l-2.147,-7.298c1.407,-2.28 2.209,-4.896 2.209,-7.679c0,-1.715 -0.311,-3.363 -0.873,-4.912c-2.343,0.414 -4.127,2.45 -4.127,4.912c0,6.065 -5.832,11 -13,11c-2.547,0 -4.627,1.912 -4.937,4.376c1.571,0.398 3.223,0.624 4.937,0.624c2.73,0 5.309,-0.556 7.627,-1.523l8.354,2.457c1.197,0.352 2.309,-0.76 1.957,-1.957z" fill="#000000" stroke="none" stroke-width="1" stroke-linecap="butt" stroke-linejoin="miter" opacity="0.15"></path></g></g></svg>